<?xml version="1.0" encoding="UTF-8" standalone="no"?>
<!-- Created with Inkscape (http://www.inkscape.org/) -->

<svg
   xmlns:dc="http://purl.org/dc/elements/1.1/"
   xmlns:cc="http://creativecommons.org/ns#"
   xmlns:rdf="http://www.w3.org/1999/02/22-rdf-syntax-ns#"
   xmlns:svg="http://www.w3.org/2000/svg"
   xmlns="http://www.w3.org/2000/svg"
   xmlns:sodipodi="http://sodipodi.sourceforge.net/DTD/sodipodi-0.dtd"
   xmlns:inkscape="http://www.inkscape.org/namespaces/inkscape"
   width="102.43535mm"
   height="102.60787mm"
   viewBox="0 0 102.43535 102.60787"
   version="1.1"
   id="svg172"
   inkscape:version="0.92.3 (2405546, 2018-03-11)"
   sodipodi:docname="People Network.svg">
  <title
     id="title264">People Network</title>
  <defs
     id="defs166" />
  <sodipodi:namedview
     id="base"
     pagecolor="#ffffff"
     bordercolor="#666666"
     borderopacity="1.0"
     inkscape:pageopacity="0.0"
     inkscape:pageshadow="2"
     inkscape:zoom="0.35"
     inkscape:cx="336.76711"
     inkscape:cy="373.49466"
     inkscape:document-units="mm"
     inkscape:current-layer="layer1"
     showgrid="false"
     fit-margin-top="0"
     fit-margin-left="0"
     fit-margin-right="0"
     fit-margin-bottom="0"
     inkscape:window-width="1920"
     inkscape:window-height="1017"
     inkscape:window-x="3832"
     inkscape:window-y="-8"
     inkscape:window-maximized="1" />
  <metadata
     id="metadata169">
    <rdf:RDF>
      <cc:Work
         rdf:about="">
        <dc:format>image/svg+xml</dc:format>
        <dc:type
           rdf:resource="http://purl.org/dc/dcmitype/StillImage" />
        <dc:title>People Network</dc:title>
        <cc:license
           rdf:resource="http://creativecommons.org/publicdomain/zero/1.0/" />
      </cc:Work>
      <cc:License
         rdf:about="http://creativecommons.org/publicdomain/zero/1.0/">
        <cc:permits
           rdf:resource="http://creativecommons.org/ns#Reproduction" />
        <cc:permits
           rdf:resource="http://creativecommons.org/ns#Distribution" />
        <cc:permits
           rdf:resource="http://creativecommons.org/ns#DerivativeWorks" />
      </cc:License>
    </rdf:RDF>
  </metadata>
  <g
     inkscape:label="Layer 1"
     inkscape:groupmode="layer"
     id="layer1"
     transform="translate(-16.73037,-145.04592)">
    <g
       id="g262"
       transform="matrix(0.27569406,0,0,0.27569406,-9.3484862,169.37336)"
       style="stroke-width:3.62720919">
      <path
         id="path235"
         transform="scale(0.26458333)"
         d="m 1052.2109,-333.50781 c -8.2152,-0.0202 -13.9671,0.85877 -24.248,2.96484 -33.72704,6.90894 -57.32206,17.45819 -82.25587,36.77344 -18.24068,14.13031 -29.75566,26.39712 -41.9082,44.64648 -13.1754,19.7854 -22.3283,41.86737 -28.11328,67.82617 -2.83423,12.71798 -2.94992,16.68245 -1.98047,67.12891 0.1525,7.93611 0.14375,7.9595 -3.12305,10.16602 -5.21129,3.51989 -44.75291,19.276745 -52.44531,20.898434 -1.80416,0.380342 -10.21349,3.382209 -18.68945,6.671875 -27.19106,10.553341 -83.17823,30.808594 -85.15821,30.808594 -1.30684,0 -5.54194,-4.851828 -13.3125,-15.25 -25.47961,-34.095466 -43.76623,-50.309893 -72.95703,-64.689453 -35.11551,-17.29812 -64.13596,-22.61773 -103.66211,-19.00195 -33.61338,3.07488 -69.05326,17.68036 -97,39.97656 -27.80326,22.181729 -49.21764,52.743601 -60.35742,86.138671 -7.59957,22.7821987 -10.12735,41.643329 -9.3457,69.736328 0.61576,22.1311 1.61169,27.901037 8.28906,48.023438 5.76491,17.372673 13.30911,32.835023 23.25781,47.671873 46.23681,68.95469 132.92357,98.75044 213.4043,73.34961 5.08845,-1.60598 10.91728,-2.92767 12.95312,-2.9375 3.50128,-0.0167 3.95643,0.37468 8.41211,7.23242 12.55257,19.31953 61.32829,99.69431 69.93946,115.25 2.13123,3.85 4.90263,8.52454 6.16015,10.38867 4.82593,7.1541 2.64994,12.38377 -19.20117,46.14258 -40.0882,61.93429 -53.3387,81.11265 -57.2832,82.91016 -2.35858,1.07471 -3.27771,0.83749 -15.0918,-3.87891 -2.94985,-1.1777 -11.04986,-3.72582 -18,-5.66211 -16.71519,-4.65724 -40.83238,-6.34236 -66.21289,-4.62695 -16.17086,1.093 -17.2143,1.30096 -33.40039,6.64453 -54.69226,18.05583 -91.12486,49.08254 -115.17188,98.08203 -7.31361,14.9026 -13.31806,32.54221 -15.99804,47 -1.49276,8.05191 -1.84923,14.8702 -1.83789,35 0.0182,28.73859 1.40943,38.35992 8.5332,59.01953 19.36456,56.1594 62.45176,99.27919 118.33789,118.42579 21.94605,7.51869 28.55798,8.48488 58.11328,8.5 20.20985,0.01 28.00429,-0.36448 35,-1.67579 28.00044,-5.24851 53.84917,-16.49772 76.32031,-33.21484 6.21752,-4.62539 17.9112,-15.17369 27.98829,-25.24609 9.51998,-9.51538 18.36476,-17.56488 19.65429,-17.88867 1.69395,-0.42509 7.99135,2.10105 22.69141,9.10546 32.4322,15.4534 134.74109,67.06268 141.52734,71.39258 8.82236,5.62908 9.21819,6.53532 8.13086,18.58203 -0.49644,5.50001 -0.96429,19.22499 -1.04101,30.5 -0.12095,17.77172 0.15718,21.89743 2.0957,31 4.81682,22.61791 15.22879,48.4473 26.69531,66.22461 14.60266,22.63954 36.18612,44.03504 58.1875,57.67964 24.97852,15.4923 55.37408,26.3342 78.50978,28 42.8409,3.0869 70.4057,-1.7583 103.2383,-18.1484 56.3918,-28.151 94.7664,-80.41997 104.0722,-141.75585 2.0859,-13.74251 2.0912,-38.33988 0.012,-52 -3.4258,-22.50459 -11.5682,-47.25995 -21.1993,-64.45703 -8.334,-14.88079 -8.4248,-14.12926 3.2657,-27.09765 11.9953,-13.30651 18.2874,-19.93516 77.3105,-81.44727 25.597,-26.67651 64.5015,-67.40149 86.4531,-90.5 49.8302,-52.4338 70.6339,-73.50157 72.5762,-73.49023 0.8314,0.004 5.1117,2.07304 9.5117,4.59765 25.1954,14.4562 46.6439,22.86207 68.5,26.84766 37.9821,6.92621 78.4479,1.45915 113.5,-15.33594 51.5871,-24.71769 87.9529,-70.20626 103.625,-129.61719 2.2603,-8.56747 2.3721,-10.48971 2.3301,-40 l -0.043,-31 -3.1621,-11.64257 c -12.7896,-47.10726 -41.5628,-88.34751 -79.25,-113.58399 -16.325,-10.93173 -39.8971,-21.08425 -60.7383,-26.16211 -17.4156,-4.24325 -30.5103,-5.50333 -50.0195,-4.80859 -32.558,1.15943 -57.8339,8.92786 -93.2422,28.65429 -17.4433,9.7179 -9.6549,14.46837 -64.1601,-39.12304 -42.7308,-42.01443 -186.4327,-186.659747 -196.7305,-198.021487 l -4.248,-4.685547 9.0546,-16.25 c 13.8863,-24.923097 19.9168,-40.483909 25.3008,-65.283206 2.9843,-13.74584 3.273,-52.13932 0.4942,-65.84179 -8.1715,-40.29385 -24.9588,-72.11308 -52.6543,-99.8086 -21.9914,-21.99133 -47.0624,-37.4509 -76.3536,-47.07812 -13.6262,-4.47865 -24.32,-6.33886 -44.8906,-7.8125 -8.2135,-0.58842 -14.0298,-0.92541 -18.959,-0.9375 z m 6.8008,49.09375 c 15.0595,0.11403 30.5597,1.63085 40.1621,4.375 11.4035,3.25885 30.5378,12.68591 41.25,20.32226 10.2313,7.2935 23.7306,20.6471 31.9707,31.625 11.877,15.82302 21.5241,38.44171 25.5762,59.96875 2.4068,12.78623 2.2154,34.90145 -0.4141,48.03907 -5.476,27.361001 -17.8335,50.684974 -37.8691,71.472652 -22.8615,23.71977 -49.2095,37.007592 -82.3301,41.5195311 -35.3994,4.8224011 -70.2366,-4.4475481 -100.99998,-26.8750001 -8.77704,-6.39874 -24.97071,-23.377452 -31.62304,-33.15625 -16.67222,-24.50753 -24.38061,-49.314843 -24.37305,-78.425783 0.007,-22.37512 4.20703,-41.18397 13.52929,-60.57422 6.8182,-14.1816 13.94831,-24.08163 25.92579,-36 20.82909,-20.72634 45.67019,-35.34772 67.83399,-39.92578 8.2006,-1.69388 19.6484,-2.45392 31.3613,-2.36523 z M 542.35742,-96.902344 c 22.19093,-0.01507 32.49611,1.39402 46.59375,6.369141 48.54709,17.132489 81.86021,54.999712 92.56445,105.220703 3.08402,14.46902 3.08402,38.907931 0,53.376953 -9.42366,44.212997 -37.39566,80.208957 -77.44531,99.660157 -13.32642,6.47235 -20.90066,9.03201 -34.26953,11.58398 -29.94009,5.71525 -58.7516,1.77568 -86.94336,-11.89062 -25.63676,-12.42771 -49.14405,-35.77542 -63.32812,-62.89844 -10.67354,-20.410157 -13.67736,-34.282055 -13.66602,-63.142577 0.008,-22.220719 1.55451,-32.6408393 7.18555,-48.4179686 13.42923,-37.6261304 46.24459,-69.2016094 86.80859,-83.5292964 15.55162,-5.493011 21.08422,-6.317292 42.5,-6.332032 z M 888.91797,-56.625 c 5.08952,-0.130038 7.18004,3.373659 13.20703,12.214844 8.87531,13.019463 15.06921,20.773101 26.42578,33.080078 l 9.03711,9.7929686 -3.77344,6.2070313 c -4.46351,7.3414071 -8.98766,14.4120291 -43.00976,67.2070311 -14.1772,21.999999 -31.82685,49.450007 -39.22071,60.999997 -7.39381,11.55001 -14.34395,21.7875 -15.44531,22.75 -1.10135,0.96251 -2.74101,1.74232 -3.64258,1.73438 -2.48538,-0.0232 -19.17574,-7.89719 -59.13671,-27.90039 -32.91402,-16.47571 -50.00196,-25.94092 -50.00196,-27.69727 0,-0.3599 1.68751,-8.5828 3.75,-18.271482 l 3.75,-17.615235 -0.11133,-24 c -0.0611,-13.2 -0.60303,-27.137121 -1.20507,-30.970703 -0.9317,-5.9325271 -0.86679,-7.2239862 0.44531,-8.6738281 2.10153,-2.32219086 9.5146,-5.724416 24.37109,-11.1894531 68.72398,-25.2804698 103.2188,-37.8394178 117.67969,-42.8437498 8.51187,-2.945613 13.39856,-4.735245 16.88086,-4.824219 z m 285.61523,60.8378906 11.7324,11.3320314 c 6.453,6.23273 63.1131,62.632059 125.9121,125.332028 l 114.1817,114 -6.3223,10.51563 c -9.998,16.63419 -15.2175,26.69485 -19.6562,37.88281 -2.2692,5.71938 -4.7835,11.66888 -5.586,13.2207 -2.1748,4.20544 -4.0347,4.66675 -12.9375,3.20703 -9.8643,-1.61729 -50.0786,-7.1516 -90,-12.38671 -33.746,-4.42529 -34.9133,-4.62456 -38.7929,-6.60743 -3.7021,-1.89206 -4.5458,-4.45856 -6.25,-19.02734 -2.8026,-23.95912 -8.1158,-42.55467 -17.9864,-62.94922 -27.6968,-57.2267 -80.1318,-95.74447 -142.8867,-104.96289 -16.5675,-2.43371 -46.7939,-1.48499 -63.1172,1.98047 -22.96006,4.87447 -45.46619,13.87972 -62.26951,24.91602 -17.1111,11.23841 -25.93561,19.15872 -51.44141,46.16992 l -6.57226,6.95898 -8.54493,-4.23437 c -4.69999,-2.32894 -9.92792,-5.39697 -11.61718,-6.81836 l -3.07032,-2.58399 3.4375,-6.14062 c 8.12599,-14.50928 74.98608,-118.720879 88.20899,-137.48633 3.3544,-4.76041 7.24602,-9.306079 8.64648,-10.101562 2.34365,-1.33125 3.09111,-1.195655 9.40039,1.697265 8.85967,4.06232 21.59765,7.705446 36.75005,10.509766 10.455,1.934974 15.3758,2.23419 36.1054,2.191406 21.008,-0.04338 25.2933,-0.331075 34.3789,-2.296875 23.0564,-4.988598 41.2761,-12.334011 63.8672,-25.75 z M 700.45117,148.22266 c 2.31664,-0.18743 9.44433,3.18881 37.70117,17.39062 35.09424,17.63829 58.79713,30.4426 64.19532,34.67969 l 2.49023,1.95508 -2.70117,5.50781 c -1.48577,3.02947 -7.15268,12.39586 -12.5918,20.81445 -25.15347,38.93205 -45.26179,69.56619 -49.5,75.41016 -2.55152,3.51822 -5.24579,6.39648 -5.98828,6.39648 -2.35472,0 -5.1327,-4.0031 -17,-24.5 -11.76442,-20.31913 -33.13529,-56.42096 -47.35742,-80 -4.31263,-7.15 -7.97332,-13.48424 -8.13281,-14.07617 -0.15942,-0.59193 5.64006,-7.34193 12.88671,-15 7.24672,-7.65807 15.52015,-16.84883 18.38477,-20.42383 2.86462,-3.575 5.95605,-7.12001 6.86914,-7.87695 0.18218,-0.15102 0.41319,-0.25057 0.74414,-0.27734 z m 357.91013,11.33007 c 2.4454,-0.0249 4.8787,0.0232 7.2989,0.14649 51.1225,2.60325 98.5084,34.12358 120.2226,79.96875 5.3731,11.34413 11.0185,28.041 12.4121,36.70898 1.3338,8.28578 1.3479,30.83552 0.027,42.5 -3.8233,33.77221 -22.6321,66.51292 -52.4649,91.32813 -13.6649,11.36659 -38.9931,22.78946 -60.0429,27.07812 v 0 c -9.9731,2.03191 -28.012,3.24752 -36.457,2.45703 -17.2753,-1.61692 -35.5087,-7.04009 -53.5098,-15.91601 -27.03802,-13.33168 -48.38626,-35.78748 -62.43359,-65.66992 -10.4267,-22.1804 -13.81507,-39.29782 -12.7207,-64.27735 0.74343,-16.96867 3.07237,-28.58935 8.51757,-42.5 14.33409,-36.61855 42.80741,-66.52155 76.70312,-80.55273 17.6409,-7.30246 35.3318,-11.09698 52.4492,-11.27149 z m -206.91794,62.79493 12.79492,6.50586 c 7.03657,3.57804 13.50153,7.29633 14.36719,8.26367 1.75155,1.95732 1.32274,5.95788 -3.35352,31.25976 -2.99928,16.22837 -3.28372,46.1335 -0.58007,61 7.79199,42.8465 24.73243,75.43544 53.8125,103.51563 11.53255,11.13611 21.29039,18.73562 35.61718,27.74023 16.66708,10.47549 32.93067,16.87893 59.00584,23.23242 l 11.25,2.74024 v 106.31836 c 0,100.394 -0.098,106.34747 -1.75,106.83008 -0.9625,0.28108 -7.466,1.89649 -14.4531,3.59179 -6.9871,1.69539 -18.38007,5.09606 -25.31641,7.55664 -6.93634,2.4607 -13.69179,4.47461 -15.01172,4.47461 -4.35439,0 -8.82458,-5.58804 -21.33398,-26.66601 -6.80062,-11.45893 -20.61845,-34.78401 -30.70703,-51.83399 -10.08858,-17.05001 -23.51059,-39.54998 -29.82618,-50 -6.31559,-10.44997 -17.96292,-30.025 -25.88281,-43.5 -7.91992,-13.475 -30.14378,-51.04999 -49.38672,-83.5 -41.87278,-70.6114 -57.33203,-97.53375 -57.33203,-99.8457 0,-2.83763 4.72921,-11.30227 14.3125,-25.61719 4.98459,-7.44569 21.84043,-33.33711 37.45899,-57.53711 15.61855,-24.19999 30.17831,-46.36828 32.35547,-49.26367 z m 718.65044,7.20117 c 1.9821,0.0172 4.2317,0.11118 7.0566,0.25195 28.3693,1.41376 54.0752,9.4707 75.707,23.72852 11.1199,7.3293 31.4918,27.87518 39.2949,39.63086 15.9017,23.95654 22.5487,46.79917 22.4727,77.21679 -0.045,18.1469 -1.8216,29.80445 -6.8398,44.87305 -15.1968,45.6316 -56.1547,81.63134 -104.9278,92.22656 -8.8094,1.91365 -33.6465,3.27707 -41.5,2.27735 -32.6858,-4.1607 -60.4982,-17.75941 -83.5136,-40.83399 -24.8845,-24.94828 -38.33,-53.35489 -41.502,-87.67969 -4.3681,-47.26925 19.0279,-96.94784 58.8047,-124.86328 17.885,-12.55174 32.8706,-19.01131 56.0312,-24.15234 9.4299,-2.09316 12.9692,-2.7274 18.9161,-2.67578 z m -326.7227,119.57422 4.7422,0.52734 c 2.6088,0.28966 16.6691,2.12602 31.2441,4.08203 95.767,12.85216 102.9461,13.96955 106.0703,16.50196 1.7066,1.38327 2.1674,3.45376 2.9239,13.14257 1.7718,22.69569 8.5916,48.2037 18.0468,67.5 5.4506,11.12368 15.8482,27.78097 19.5157,31.26367 2.0324,1.92998 2.2326,2.6597 1.3554,4.9668 -2.1521,5.66041 -5.9782,9.89693 -59.416,65.76953 -23.1454,24.19998 -67.2394,70.325 -97.9863,102.5 -30.747,32.17501 -60.9665,63.78452 -67.1543,70.24414 -6.1879,6.45948 -12.9129,12.87199 -14.9434,14.25 -2.0304,1.37791 -4.4923,2.50586 -5.4707,2.50586 -0.9783,0 -4.059,-1.94549 -6.8457,-4.32422 -6.0515,-5.1654 -27.7503,-18.2696 -38.1601,-23.04492 -9.8046,-4.4976 -23.5089,-8.97408 -39.1856,-12.80078 l -12.75,-3.11328 V 592.75391 486.41406 l 2.25,-0.51562 c 1.2376,-0.2843 6.1202,-1.39938 10.8516,-2.47656 27.8752,-6.34651 50.4574,-16.66378 72.3984,-33.08008 31.9284,-23.88889 46.3013,-43.4291 69.3946,-94.3418 z m -509.32618,59.2539 c 0.69933,0 2.21939,1.91248 3.37891,4.25 2.50643,5.0527 15.93073,27.7893 63.91406,108.25 19.67981,33 53.24654,89.47502 74.5918,125.5 21.3453,36.02499 42.99928,72.32363 48.11914,80.66407 5.11986,8.34047 9.30859,15.77719 9.30859,16.52539 0,0.74812 -5.3716,7.78944 -11.93554,15.64843 -6.56395,7.85912 -14.7314,18.42417 -18.1504,23.47657 -3.41896,5.05228 -7.357,10.42305 -8.75195,11.93554 -1.39498,1.51249 -3.01503,2.74219 -3.59961,2.74219 -2.04268,-0.0154 -48.43468,-22.82514 -94.0625,-46.24805 -58.08317,-29.81692 -71.68549,-37.09306 -72.87109,-38.97265 -0.64521,-1.02282 0.0497,-5.79158 2.17187,-14.88867 4.49258,-19.25874 5.53705,-30.224 4.93164,-51.77539 -0.84102,-29.93817 -4.9453,-48.08186 -16.25781,-71.88086 -9.48026,-19.94442 -20.04504,-35.58651 -33.94531,-50.25391 -4.46034,-4.7065 -9.38662,-10.23126 -10.94727,-12.27734 l -2.83789,-3.71875 4.64258,-7.99024 c 4.86146,-8.36681 33.9219,-53.94853 45.89453,-71.98633 7.25518,-10.9305 14.22263,-19 16.40625,-19 z M 541.47461,512.42188 c 13.48719,-0.0918 28.12113,0.93527 35.38281,2.86328 41.1027,10.91308 76.18167,39.31371 93.48242,75.68554 9.83161,20.66918 13.35925,36.36425 13.35547,59.40625 -0.009,39.27542 -12.60558,70.91594 -38.75976,97.36133 -21.09835,21.33339 -48.88444,36.71757 -74.33789,41.15625 -10.85144,1.89207 -41.71427,1.8506 -52.32227,-0.0703 -17.47026,-3.16362 -38.84161,-12.50686 -55.19922,-24.13477 -10.83212,-7.70007 -25.71257,-22.69281 -33.56836,-33.82031 -6.84336,-9.69328 -15.76374,-27.09742 -19.15039,-37.36133 -3.36854,-10.20899 -4.25872,-21.62863 -3.78711,-48.63086 l 0.4375,-25 3.6875,-10.87304 c 16.65506,-49.10177 60.18245,-86.90222 109.58008,-95.16211 5.42639,-0.90734 13.10691,-1.36489 21.19922,-1.41992 z m 518.38279,233.70703 c 15.4784,-0.0178 27.9549,1.97935 42.2539,6.76367 49.922,16.7032 83.7565,54.50212 95.4219,106.60351 5.8998,26.35019 0.8671,61.96616 -12.5078,88.51953 -19.1663,38.05104 -61.6633,70.05068 -99.9902,75.29098 v 0 c -9.0925,1.2427 -42.4672,1.2196 -51.0645,-0.035 -22.637,-3.3038 -53.05958,-19.7411 -73.16406,-39.53121 -18.56534,-18.27511 -30.43236,-39.39347 -37.25781,-66.30469 -2.48281,-9.78879 -2.67799,-12.09496 -2.68555,-31.56055 -0.006,-19.84301 0.15034,-21.59852 2.82617,-31.86523 7.23462,-27.75821 19.58277,-48.75014 40.47071,-68.79883 26.44562,-25.38319 59.89054,-39.04279 95.69724,-39.08398 z"
         style="fill:#000000;stroke-width:13.70913696"
         inkscape:connector-curvature="0" />
      <path
         id="path231"
         transform="scale(0.26458333)"
         d="m 1068.9297,775.76367 c -15.8289,-0.116 -31.7325,6.02639 -39.4004,18.48828 -5.5927,9.08931 -6.6772,14.01862 -6.627,30.125 0.037,11.80063 0.4678,16.08241 2.3125,23 6.0282,22.60449 17.8773,36.93272 33.8887,40.97852 2.0648,0.52206 7.2399,0.78304 11.502,0.58008 23.8003,-1.13258 40.0487,-22.54323 43.6953,-57.57813 1.48,-14.21839 -0.7361,-26.83234 -6.4199,-36.53125 -7.3678,-12.57211 -23.1223,-18.94649 -38.9512,-19.0625 z m -36.457,107.46485 -8.8067,3.43359 c -4.8445,1.88787 -11.0322,4.2422 -13.75,5.23047 -6.6912,2.43311 -12.98275,8.49118 -16.52538,15.91406 -3.75805,7.87431 -7.74513,27.20061 -9.26367,44.9043 -1.47477,17.19379 -1.17124,17.96477 8.61524,21.90039 12.86471,5.17338 45.55661,11.81179 64.61521,13.12109 29.2699,2.01082 89.0215,-9.35336 94.6934,-18.00976 1.3347,-2.03702 1.4918,-4.24997 0.9433,-13.2793 -0.6963,-11.46399 -3.5565,-29.56631 -6.2519,-39.56641 -2.1062,-7.81421 -5.4082,-14.19245 -9.4844,-18.32226 -4.0241,-4.0769 -6.5291,-5.39916 -17.666,-9.32227 -4.8043,-1.69239 -9.9953,-3.72497 -11.5352,-4.51758 -2.6878,-1.3833 -2.9905,-1.27909 -7.6093,2.58789 -6.3927,5.35231 -15.7142,9.64718 -24.2461,11.17188 -13.3672,2.38881 -29.5642,-2.19037 -39.2149,-11.08594 z"
         style="fill:#fe5722;fill-opacity:1;stroke-width:13.70913696"
         inkscape:connector-curvature="0" />
      <path
         id="path223"
         transform="scale(0.26458333)"
         d="m 552.88086,534.72266 c -11.01732,-0.14437 -22.19282,2.72205 -30.64453,8.74023 -4.60815,3.28124 -10.50271,11.29156 -12.77149,17.35547 -2.97108,7.94079 -4.14484,19.41473 -3.01953,29.52734 3.59312,32.29009 18.02642,53.50639 38.78321,57.01368 2.54615,0.43029 5.07891,0.83172 5.6289,0.89257 3.65976,0.40283 14.87899,-2.49355 19.7793,-5.10547 15.38619,-8.20066 26.03846,-30.47835 27.38476,-57.26953 0.88782,-17.66751 -3.05902,-30.08533 -12.48437,-39.27343 -7.8857,-7.68725 -20.16995,-11.71725 -32.65625,-11.88086 z m 35.49023,107.38672 -4.57812,4.21874 c -16.56529,15.2693 -45.20184,15.31538 -63.37305,0.10157 l -4.71484,-3.94922 -7.92383,3.05859 c -4.35795,1.68151 -10.29689,3.96339 -13.19727,5.07227 -8.76706,3.3518 -12.66526,6.8501 -16.67382,14.96289 -7.43819,15.05408 -13.38889,58.12388 -8.80274,63.71289 3.39224,4.13397 30.24974,11.56451 54.25,15.00781 4.12502,0.5918 8.62501,1.24153 10,1.44336 7.11228,1.04398 34.08484,0.47922 44.21485,-0.92578 25.05176,-3.47467 51.31583,-10.39899 56.5332,-14.9043 2.64926,-2.28759 2.74347,-2.7052 2.54883,-11.16601 -0.36605,-15.89507 -5.05654,-41.97353 -9.35352,-51.99805 -2.29353,-5.35049 -8.27323,-11.99363 -12.875,-14.30273 -1.96252,-0.9848 -6.04334,-2.57718 -9.06836,-3.53907 -3.02498,-0.96192 -8.08532,-2.88458 -11.24414,-4.27148 z"
         style="fill:#9c28b1;fill-opacity:1;stroke-width:13.70913696"
         inkscape:connector-curvature="0" />
      <path
         id="path213"
         transform="scale(0.26458333)"
         d="m 1580.9629,267.50195 c -1.5675,-0.0189 -3.1712,0.0122 -4.8106,0.0937 -20.1417,1.00153 -33.6615,10.35187 -39.875,27.57422 -2.1023,5.8274 -2.415,8.41338 -2.3847,19.70703 0.099,35.9277 15.9545,62.00381 39.8222,65.4961 10.559,1.54499 21.7824,-1.26844 29.959,-7.51172 15.9372,-12.16899 26.691,-48.86133 21.1758,-72.25391 -5.021,-21.29574 -20.3745,-32.82254 -43.8867,-33.10547 z m -37.5508,107.57032 -7.7773,3.03125 c -4.2779,1.6676 -9.5774,3.58847 -11.7774,4.26757 -10.571,3.26279 -17.3224,10.45447 -21.4726,22.87305 -3.0327,9.0745 -7.0459,33.93067 -7.3067,45.25977 -0.2616,11.36141 0.4836,12.68217 8.918,15.83789 10.9281,4.08869 32.3255,8.9758 50.3613,11.5 28.5047,3.98951 70.9674,-0.70853 99.6563,-11.02539 10.2396,-3.68232 10.8943,-4.65716 10.5625,-15.72657 -0.4611,-15.38248 -4.5227,-38.97728 -8.3848,-48.71289 -4.7938,-12.08379 -8.5382,-15.31716 -25.0137,-21.60547 -16.7289,-6.3849 -15.0345,-6.25719 -20.3769,-1.55468 -17.4769,15.38381 -44.6721,14.95046 -63.666,-1.01563 z"
         style="fill:#fe9600;fill-opacity:1;stroke-width:13.70913696"
         inkscape:connector-curvature="0" />
      <path
         id="path207"
         transform="scale(0.26458333)"
         d="m 1061.8574,181.37695 c -34.173,0 -51.6723,24.09122 -45.0078,61.96094 4.757,27.03112 16.2015,44.41749 32.6035,49.53125 5.8683,1.8296 18.4262,1.85718 24.4219,0.0527 14.4614,-4.35223 25.5835,-18.7936 31.1289,-40.41797 10.9627,-42.74941 -6.2516,-71.12696 -43.1465,-71.12696 z m 36.5391,107.79883 -5.0664,4.0332 c -19.1618,15.25691 -45.1001,15.03254 -63.4649,-0.55078 -2.1958,-1.86317 -4.6708,-3.17909 -5.5,-2.92382 -7.9521,2.44793 -25.24685,9.43304 -28.2109,11.39453 -9.69415,6.41529 -15.77307,25.19969 -18.8086,58.11718 -1.08635,11.78056 -0.81466,14.42016 1.78516,17.38086 3.44001,3.91749 33.86204,11.81809 58.22654,15.1211 27.9331,3.78689 66.0274,-0.27286 95.5,-10.17578 10.1407,-3.4074 11.1317,-3.96872 12.6953,-7.19532 1.4781,-3.05009 1.5742,-4.914 0.7422,-14.5 -2.1058,-24.25991 -6.8925,-44.27183 -12.4648,-52.10937 -4.1893,-5.89232 -8.193,-8.52784 -18.5254,-12.18946 -4.6458,-1.64638 -10.3511,-3.75948 -12.6777,-4.69726 z"
         style="fill:#000000;stroke-width:13.70913696"
         inkscape:connector-curvature="0" />
      <path
         id="path197"
         transform="scale(0.26458333)"
         d="m 546.65625,-77.517578 c -1.47675,0.009 -2.98292,0.06669 -4.51758,0.171875 -19.5168,1.337711 -33.90013,11.720616 -39.38086,28.427734 -2.83944,8.655583 -2.62685,29.60115 0.42383,41.7949221 5.52174,22.0707489 16.34302,36.2067729 31.46094,41.0957029 2.57439,0.832541 7.72583,1.272644 13.24023,1.132813 7.89887,-0.20029 9.84857,-0.634293 15.60547,-3.470703 7.12313,-3.50953 13.81727,-9.901736 18.19922,-17.378907 9.37731,-16.00116 13.71205,-46.154093 8.85547,-61.59375 -6.19282,-19.687652 -21.73549,-30.314982 -43.88672,-30.179687 z m -36.28711,107.671875 -4.25586,1.716797 c -2.34077,0.94342 -8.02951,3.05267 -12.64258,4.6875 -14.91379,5.285291 -20.01603,10.435582 -24.53125,24.769531 -2.80369,8.900572 -6.26568,29.641242 -7.1914,43.087895 -0.62536,9.08409 -0.5424,9.67287 1.72656,12.30859 4.2709,4.96115 30.20983,12.17059 57.88281,16.08789 16.04481,2.27125 42.48991,1.46463 61.75,-1.88281 25.84109,-4.49122 44.84267,-10.55692 47.26758,-15.08789 2.60466,-4.86689 -1.62636,-40.278531 -6.59961,-55.234378 -4.80503,-14.450011 -8.74314,-18.272076 -25.05078,-24.316406 -5.9774,-2.21548 -12.11532,-4.499182 -13.64063,-5.076172 -2.51021,-0.94957 -3.18823,-0.667795 -7.15039,2.984375 -8.26019,7.613988 -18.32601,11.177734 -31.57617,11.177734 -13.25907,0 -23.12734,-3.603022 -32.11914,-11.726562 z"
         style="fill:#2095f2;fill-opacity:1;stroke-width:13.70913696"
         inkscape:connector-curvature="0" />
      <path
         id="path189"
         transform="scale(0.26458333)"
         d="m 1057.6133,-258.58398 c -4.882,0.0684 -9.5098,0.54424 -12.918,1.46679 -7.3134,1.97967 -16.53,7.56096 -20.7578,12.57031 -10.5849,12.54163 -13.0948,32.721 -7.0527,56.69336 5.6185,22.29179 16.8881,36.52613 32.4023,40.92774 2.7493,0.78003 7.8831,1.14088 12.8828,0.90625 6.7737,-0.3179 9.472,-0.96195 14.5879,-3.48047 12.2627,-6.03694 21.3187,-19.11443 26.3477,-38.05273 3.591,-13.52281 3.8219,-33.48668 0.498,-43.07032 -4.0497,-11.67642 -12.6447,-20.672 -23.9648,-25.08593 -5.0512,-1.96955 -13.8888,-2.98906 -22.0254,-2.875 z m -34.1153,106.83593 -3.2812,1.69727 c -1.8048,0.93326 -7.068,2.97624 -11.6973,4.54101 -15.39784,5.20481 -20.93883,10.17322 -25.27145,22.6543 -3.92387,11.30366 -7.79099,34.590137 -7.98828,48.103517 -0.10715,7.33494 0.1363,8.542363 2.16992,10.707031 5.17795,5.511681 39.12471,13.7605 68.92771,16.75 20.5621,2.062549 57.2518,-2.651436 82,-10.535156 12.5453,-3.996382 14.5743,-5.134426 15.8946,-8.921875 1.3342,-3.827713 0.08,-19.646655 -2.8887,-36.435547 -4.9924,-28.23056 -10.2298,-35.72035 -29.3965,-42.03906 -4.4607,-1.47057 -9.8265,-3.53494 -11.9238,-4.58789 l -3.8125,-1.91407 -3.6075,3.50391 c -7.3104,7.10054 -21.2086,12.60156 -31.8398,12.60156 -12.1473,0 -24.8107,-4.62591 -32.7852,-11.97656 z"
         style="fill:#009687;fill-opacity:1;stroke-width:13.70913696"
         inkscape:connector-curvature="0" />
    </g>
  </g>
</svg>
